HIERARCHY
ROOT mixamorig:Hips
{
	OFFSET 0.000000 104.274902 0.000000
	CHANNELS 6 Xposition Yposition Zposition Xrotation Yrotation Zrotation
	JOINT mixamorig:Spine
	{
		OFFSET 0.000000 10.181549 0.131524
		CHANNELS 6 Xposition Yposition Zposition Xrotation Yrotation Zrotation
		JOINT mixamorig:Spine1
		{
			OFFSET 0.000000 9.893990 -1.470706
			CHANNELS 3 Xrotation Yrotation Zrotation
			JOINT mixamorig:Spine2
			{
				OFFSET 0.000000 9.220787 -1.370637
				CHANNELS 3 Xrotation Yrotation Zrotation
				JOINT mixamorig:Neck
				{
					OFFSET 0.000000 16.740372 -2.049022
					CHANNELS 6 Xposition Yposition Zposition Xrotation Yrotation Zrotation
					JOINT mixamorig:Head
					{
						OFFSET 0.000000 9.617859 1.684976
						CHANNELS 6 Xposition Yposition Zposition Xrotation Yrotation Zrotation
						JOINT mixamorig:HeadTop_End
						{
							OFFSET 0.000000 22.037384 7.501072
							CHANNELS 6 Xposition Yposition Zposition Xrotation Yrotation Zrotation
							End Site
							{
								OFFSET 0.000000 23.106567 -2.828246
							}
						}
					}
				}
				JOINT mixamorig:RightShoulder
				{
					OFFSET -4.570000 11.014877 -2.160840
					CHANNELS 6 Xposition Yposition Zposition Xrotation Yrotation Zrotation
					JOINT mixamorig:RightArm
					{
						OFFSET -10.592867 -0.524796 -2.232105
						CHANNELS 3 Xrotation Yrotation Zrotation
						JOINT mixamorig:RightForeArm
						{
							OFFSET -27.841497 0.000000 -0.000002
							CHANNELS 3 Xrotation Yrotation Zrotation
							JOINT mixamorig:RightHand
							{
								OFFSET -28.328812 0.000000 -0.000001
								CHANNELS 3 Xrotation Yrotation Zrotation
								JOINT mixamorig:RightHandThumb1
								{
									OFFSET -2.464798 -1.573990 2.681911
									CHANNELS 6 Xposition Yposition Zposition Xrotation Yrotation Zrotation
									JOINT mixamorig:RightHandThumb2
									{
										OFFSET -3.244781 -1.873383 1.873376
										CHANNELS 3 Xrotation Yrotation Zrotation
										JOINT mixamorig:RightHandThumb3
										{
											OFFSET -2.646263 -1.527817 1.527818
											CHANNELS 6 Xposition Yposition Zposition Xrotation Yrotation Zrotation
											JOINT mixamorig:RightHandThumb4
											{
												OFFSET -1.994591 -1.151581 1.151575
												CHANNELS 6 Xposition Yposition Zposition Xrotation Yrotation Zrotation
												End Site
												{
													OFFSET -1.860176 -1.142715 1.365483
												}
											}
										}
									}
								}
								JOINT mixamorig:RightHandIndex1
								{
									OFFSET -9.108299 -0.517883 2.259803
									CHANNELS 6 Xposition Yposition Zposition Xrotation Yrotation Zrotation
									JOINT mixamorig:RightHandIndex2
									{
										OFFSET -3.699997 0.000000 0.000000
										CHANNELS 3 Xrotation Yrotation Zrotation
										JOINT mixamorig:RightHandIndex3
										{
											OFFSET -2.850006 0.000000 0.000000
											CHANNELS 3 Xrotation Yrotation Zrotation
											JOINT mixamorig:RightHandIndex4
											{
												OFFSET -2.772194 0.000000 0.000000
												CHANNELS 3 Xrotation Yrotation Zrotation
												End Site
												{
													OFFSET -2.772202 0.000000 -0.000484
												}
											}
										}
									}
								}
								JOINT mixamorig:RightHandMiddle1
								{
									OFFSET -9.532501 0.000000 -0.000000
									CHANNELS 6 Xposition Yposition Zposition Xrotation Yrotation Zrotation
									JOINT mixamorig:RightHandMiddle2
									{
										OFFSET -3.699997 0.000000 0.000000
										CHANNELS 3 Xrotation Yrotation Zrotation
										JOINT mixamorig:RightHandMiddle3
										{
											OFFSET -2.949997 0.000000 0.000000
											CHANNELS 3 Xrotation Yrotation Zrotation
											JOINT mixamorig:RightHandMiddle4
											{
												OFFSET -2.946594 0.000000 0.000000
												CHANNELS 3 Xrotation Yrotation Zrotation
												End Site
												{
													OFFSET -2.946602 0.000000 -0.000982
												}
											}
										}
									}
								}
								JOINT mixamorig:RightHandRing1
								{
									OFFSET -9.103600 -0.043106 -1.865100
									CHANNELS 6 Xposition Yposition Zposition Xrotation Yrotation Zrotation
									JOINT mixamorig:RightHandRing2
									{
										OFFSET -3.379303 0.000000 0.000000
										CHANNELS 3 Xrotation Yrotation Zrotation
										JOINT mixamorig:RightHandRing3
										{
											OFFSET -2.889694 0.000000 0.000000
											CHANNELS 3 Xrotation Yrotation Zrotation
											JOINT mixamorig:RightHandRing4
											{
												OFFSET -2.638802 0.000000 0.000000
												CHANNELS 3 Xrotation Yrotation Zrotation
												End Site
												{
													OFFSET -2.638802 0.000000 0.004218
												}
											}
										}
									}
								}
								JOINT mixamorig:RightHandPinky1
								{
									OFFSET -8.076698 -0.486725 -3.806299
									CHANNELS 6 Xposition Yposition Zposition Xrotation Yrotation Zrotation
									JOINT mixamorig:RightHandPinky2
									{
										OFFSET -3.600006 0.000000 0.000000
										CHANNELS 3 Xrotation Yrotation Zrotation
										JOINT mixamorig:RightHandPinky3
										{
											OFFSET -2.099998 0.000000 0.000000
											CHANNELS 3 Xrotation Yrotation Zrotation
											JOINT mixamorig:RightHandPinky4
											{
												OFFSET -2.115791 0.000000 0.000000
												CHANNELS 3 Xrotation Yrotation Zrotation
												End Site
												{
													OFFSET -2.115799 0.000000 0.000174
												}
											}
										}
									}
								}
							}
						}
					}
				}
				JOINT mixamorig:LeftShoulder
				{
					OFFSET 4.570400 11.014679 -2.160816
					CHANNELS 6 Xposition Yposition Zposition Xrotation Yrotation Zrotation
					JOINT mixamorig:LeftArm
					{
						OFFSET 10.592373 -0.524597 -2.232116
						CHANNELS 3 Xrotation Yrotation Zrotation
						JOINT mixamorig:LeftForeArm
						{
							OFFSET 27.841488 0.000000 0.000001
							CHANNELS 3 Xrotation Yrotation Zrotation
							JOINT mixamorig:LeftHand
							{
								OFFSET 28.328808 0.000000 -0.000000
								CHANNELS 3 Xrotation Yrotation Zrotation
								JOINT mixamorig:LeftHandThumb1
								{
									OFFSET 2.466103 -1.576202 2.681698
									CHANNELS 6 Xposition Yposition Zposition Xrotation Yrotation Zrotation
									JOINT mixamorig:LeftHandThumb2
									{
										OFFSET 3.243317 -1.872528 1.872530
										CHANNELS 3 Xrotation Yrotation Zrotation
										JOINT mixamorig:LeftHandThumb3
										{
											OFFSET 2.647881 -1.528763 1.528754
											CHANNELS 6 Xposition Yposition Zposition Xrotation Yrotation Zrotation
											JOINT mixamorig:LeftHandThumb4
											{
												OFFSET 1.998924 -1.154083 1.154080
												CHANNELS 6 Xposition Yposition Zposition Xrotation Yrotation Zrotation
												End Site
												{
													OFFSET 1.884041 -1.149155 1.337651
												}
											}
										}
									}
								}
								JOINT mixamorig:LeftHandIndex1
								{
									OFFSET 9.109299 -0.518005 2.259900
									CHANNELS 6 Xposition Yposition Zposition Xrotation Yrotation Zrotation
									JOINT mixamorig:LeftHandIndex2
									{
										OFFSET 3.699997 0.000000 0.000000
										CHANNELS 3 Xrotation Yrotation Zrotation
										JOINT mixamorig:LeftHandIndex3
										{
											OFFSET 2.850006 0.000000 0.000000
											CHANNELS 3 Xrotation Yrotation Zrotation
											JOINT mixamorig:LeftHandIndex4
											{
												OFFSET 2.774895 0.000000 0.000000
												CHANNELS 3 Xrotation Yrotation Zrotation
												End Site
												{
													OFFSET 2.774902 0.000000 -0.000072
												}
											}
										}
									}
								}
								JOINT mixamorig:LeftHandMiddle1
								{
									OFFSET 9.533401 0.000000 0.000000
									CHANNELS 6 Xposition Yposition Zposition Xrotation Yrotation Zrotation
									JOINT mixamorig:LeftHandMiddle2
									{
										OFFSET 3.699997 0.000000 0.000000
										CHANNELS 3 Xrotation Yrotation Zrotation
										JOINT mixamorig:LeftHandMiddle3
										{
											OFFSET 2.949997 0.000000 0.000000
											CHANNELS 3 Xrotation Yrotation Zrotation
											JOINT mixamorig:LeftHandMiddle4
											{
												OFFSET 2.952896 0.000000 0.000000
												CHANNELS 3 Xrotation Yrotation Zrotation
												End Site
												{
													OFFSET 2.952904 0.000000 0.000165
												}
											}
										}
									}
								}
								JOINT mixamorig:LeftHandRing1
								{
									OFFSET 9.104500 -0.042999 -1.865101
									CHANNELS 6 Xposition Yposition Zposition Xrotation Yrotation Zrotation
									JOINT mixamorig:LeftHandRing2
									{
										OFFSET 3.149994 0.000000 0.000000
										CHANNELS 3 Xrotation Yrotation Zrotation
										JOINT mixamorig:LeftHandRing3
										{
											OFFSET 2.950005 0.000000 0.000000
											CHANNELS 3 Xrotation Yrotation Zrotation
											JOINT mixamorig:LeftHandRing4
											{
												OFFSET 2.644302 0.000000 0.000000
												CHANNELS 3 Xrotation Yrotation Zrotation
												End Site
												{
													OFFSET 2.644302 0.000000 0.000083
												}
											}
										}
									}
								}
								JOINT mixamorig:LeftHandPinky1
								{
									OFFSET 8.077805 -0.486893 -3.806302
									CHANNELS 6 Xposition Yposition Zposition Xrotation Yrotation Zrotation
									JOINT mixamorig:LeftHandPinky2
									{
										OFFSET 3.600006 0.000000 0.000000
										CHANNELS 3 Xrotation Yrotation Zrotation
										JOINT mixamorig:LeftHandPinky3
										{
											OFFSET 2.099998 0.000000 0.000000
											CHANNELS 3 Xrotation Yrotation Zrotation
											JOINT mixamorig:LeftHandPinky4
											{
												OFFSET 2.125496 0.000000 0.000000
												CHANNELS 3 Xrotation Yrotation Zrotation
												End Site
												{
													OFFSET 2.125504 0.000000 -0.001254
												}
											}
										}
									}
								}
							}
						}
					}
				}
			}
		}
	}
	JOINT mixamorig:RightUpLeg
	{
		OFFSET -8.207800 -6.751701 -1.599544
		CHANNELS 6 Xposition Yposition Zposition Xrotation Yrotation Zrotation
		JOINT mixamorig:RightLeg
		{
			OFFSET 0.000004 -44.370152 0.345934
			CHANNELS 3 Xrotation Yrotation Zrotation
			JOINT mixamorig:RightFoot
			{
				OFFSET 0.000004 -44.423664 -3.043535
				CHANNELS 3 Xrotation Yrotation Zrotation
				JOINT mixamorig:RightToeBase
				{
					OFFSET 0.000001 -8.728691 10.710592
					CHANNELS 3 Xrotation Yrotation Zrotation
					JOINT mixamorig:RightToe_End
					{
						OFFSET 0.000000 -0.000665 9.278101
						CHANNELS 3 Xrotation Yrotation Zrotation
						End Site
						{
							OFFSET 0.000000 -0.000665 9.278103
						}
					}
				}
			}
		}
	}
	JOINT mixamorig:LeftUpLeg
	{
		OFFSET 8.207800 -6.751701 -1.599544
		CHANNELS 6 Xposition Yposition Zposition Xrotation Yrotation Zrotation
		JOINT mixamorig:LeftLeg
		{
			OFFSET 0.000004 -44.370037 0.346940
			CHANNELS 3 Xrotation Yrotation Zrotation
			JOINT mixamorig:LeftFoot
			{
				OFFSET 0.000004 -44.423611 -3.044388
				CHANNELS 3 Xrotation Yrotation Zrotation
				JOINT mixamorig:LeftToeBase
				{
					OFFSET 0.000001 -8.728690 10.710592
					CHANNELS 3 Xrotation Yrotation Zrotation
					JOINT mixamorig:LeftToe_End
					{
						OFFSET 0.000000 -0.000680 9.278101
						CHANNELS 3 Xrotation Yrotation Zrotation
						End Site
						{
							OFFSET 0.000000 -0.000680 9.278101
						}
					}
				}
			}
		}
	}
}
MOTION
Frames: 4
Frame Time: 0.033333
0.031989 103.516174 1.744567 3.276681 3.790446 1.659145 0.000000 10.181561 0.131520 8.673079 5.538328 -4.506192 0.490264 1.725175 -0.778683 0.479588 1.735750 -0.785537 -0.000001 16.740370 -2.049024 -10.472229 -1.074302 -1.520571 0.000001 9.617814 1.684977 -16.549115 -7.028314 -3.785815 -0.000000 22.037369 7.501073 0.000000 -0.000000 0.000000 -4.570001 11.014881 -2.160839 4.450975 -4.547188 11.673142 22.676817 35.126324 41.073083 -0.000470 85.116834 0.000555 31.157315 11.870950 -28.129371 -2.464803 -1.573975 2.681925 -2.751503 -4.118399 -16.384953 17.425283 -14.677732 5.447166 -2.646269 -1.527814 1.527828 -19.316197 15.800104 -10.456074 -1.994578 -1.151585 1.151578 -0.000000 -0.000000 -0.000002 -9.108307 -0.517862 2.259815 0.814034 2.193745 62.858415 4.711090 -4.656859 90.664115 3.740956 -4.566352 78.641944 0.000000 0.000004 0.000002 -9.532517 0.000010 0.000011 1.403760 -6.225553 75.238488 4.342613 -4.646549 86.123180 3.787492 -4.575430 79.225864 0.000002 -0.000001 -0.000000 -9.103605 -0.043087 -1.865087 3.899390 -6.866977 82.820121 4.444728 -4.652329 87.382735 3.446775 -4.497452 74.920243 0.000003 0.000003 0.000002 -8.076693 -0.486713 -3.806292 -6.694755 -18.856534 79.846093 3.913060 -4.597485 80.796213 3.456859 -4.500156 75.048554 0.000002 -0.000001 0.000001 4.570397 11.014684 -2.160814 4.154047 1.834209 -11.139458 36.686541 -15.895220 -40.801754 0.000031 -58.292502 0.000042 38.322245 -1.804809 -20.948877 2.466111 -1.576200 2.681699 -4.258174 -4.051684 21.942526 18.300146 13.385818 -14.221166 2.647891 -1.528754 1.528760 -19.037627 -14.370916 15.402401 1.998929 -1.154079 1.154081 -0.000000 0.000003 -0.000002 9.109296 -0.518000 2.259901 -1.881348 -2.315082 -19.330830 0.909273 3.136689 -32.326718 0.325776 1.928214 -19.178987 0.000000 -0.000003 -0.000001 9.533406 0.000004 0.000001 0.210207 3.793570 -19.942798 0.798332 2.954345 -30.238600 0.575530 2.534248 -25.587885 -0.000000 -0.000004 0.000002 9.104512 -0.042996 -1.865100 2.021547 7.506560 -27.733013 1.001656 3.277908 -33.977896 1.098200 3.416556 -35.631413 0.000000 -0.000001 0.000001 8.077805 -0.486898 -3.806296 -6.408586 9.788545 -28.549115 0.931578 3.171599 -32.732087 0.639936 2.664442 -27.007838 -0.000000 0.000001 -0.000001 -8.207800 -6.751707 -1.599543 -10.941423 -10.184304 -2.217719 19.747397 0.474772 2.414433 -6.870058 -0.022530 -0.501704 -6.223116 0.000000 -0.000001 -0.000000 -0.000000 -0.000000 8.207800 -6.751694 -1.599549 -30.454383 1.350701 -3.128347 52.971255 1.429464 0.967617 -8.735464 0.774962 -6.231252 -0.567758 0.000002 0.000001 0.000001 -0.000001 0.000000 
-0.038120 104.459961 6.701032 4.513929 5.090303 2.627822 0.000001 10.181540 0.131523 8.243700 5.588783 -5.974662 0.455631 1.784754 -0.995902 0.440048 1.799144 -1.002789 -0.000001 16.740374 -2.049020 -10.555523 -1.016933 -1.840332 0.000002 9.617844 1.684979 -16.590948 -7.259263 -4.332834 -0.000001 22.037369 7.501067 0.000001 -0.000000 -0.000000 -4.570000 11.014845 -2.160842 4.439829 -5.365932 10.688173 25.231349 35.933963 38.496544 0.001002 93.846963 -0.000980 33.103557 8.219947 -29.040691 -2.464796 -1.573980 2.681902 -2.751498 -4.118394 -16.384958 17.457986 -14.777907 5.495882 -2.646265 -1.527805 1.527819 -19.325090 15.906500 -10.484813 -1.994586 -1.151575 1.151568 0.000005 -0.000000 -0.000002 -9.108294 -0.517880 2.259800 0.964908 2.099472 62.715138 4.628892 -4.657077 89.651724 3.735132 -4.565181 78.568622 -0.000006 0.000002 0.000002 -9.532499 0.000008 -0.000004 1.447369 -6.225533 74.941621 4.335953 -4.646087 86.040863 3.786441 -4.575229 79.212805 -0.000004 0.000003 0.000000 -9.103593 -0.043102 -1.865105 4.053114 -6.885827 82.468394 4.419726 -4.651121 87.074373 3.425898 -4.491798 74.653756 -0.000001 0.000005 0.000001 -8.076734 -0.486719 -3.806306 -6.524874 -18.481285 79.245631 3.898938 -4.595154 80.619776 3.420643 -4.490370 74.586513 0.000000 -0.000002 -0.000000 4.570393 11.014657 -2.160815 4.231668 2.029270 -11.735899 37.573741 -13.992742 -38.987997 0.000013 -61.149031 0.000043 38.863093 -0.284464 -18.002890 2.466110 -1.576210 2.681701 -4.259872 -4.025842 21.947269 18.595103 14.042882 -14.589347 2.647892 -1.528754 1.528755 -18.596836 -11.235185 14.067296 1.998913 -1.154071 1.154081 -0.000000 0.000001 0.000002 9.109314 -0.518006 2.259901 -1.851575 -2.032122 -20.354935 0.938973 3.183077 -32.865600 0.339781 1.967986 -19.590886 0.000001 0.000001 -0.000001 9.533418 0.000002 0.000001 0.310820 4.084128 -20.721932 0.833998 3.014600 -30.923818 0.594897 2.574267 -26.022322 0.000000 -0.000001 0.000000 9.104515 -0.043001 -1.865099 2.079643 7.542581 -28.449299 1.038537 3.331882 -34.617642 1.122604 3.450287 -36.038844 0.000000 -0.000001 -0.000000 8.077814 -0.486886 -3.806301 -6.276443 9.939793 -29.278965 0.966402 3.225051 -33.356390 0.659500 2.702442 -27.425713 -0.000001 0.000001 -0.000000 -8.207800 -6.751722 -1.599545 -7.502023 -11.671082 -3.757421 15.604250 1.749593 3.315170 -4.367199 -0.164742 0.829767 -9.230324 -0.000000 -0.000001 -0.000000 -0.000000 0.000000 8.207800 -6.751715 -1.599541 -32.786274 2.156644 -4.334515 39.415731 3.416838 0.501427 -8.300050 0.777226 -6.460512 -0.322960 -0.000001 0.000003 0.000000 0.000001 -0.000001 
-0.063678 104.337280 11.547379 4.866053 5.746033 2.725879 0.000000 10.181537 0.131524 8.514799 5.536576 -6.392999 0.470435 1.795794 -1.021247 0.454094 1.811218 -1.028566 -0.000001 16.740374 -2.049025 -10.593300 -0.909720 -2.126693 -0.000003 9.617872 1.684974 -16.664907 -7.108901 -4.907180 -0.000002 22.037399 7.501081 0.000001 0.000000 0.000000 -4.570005 11.014853 -2.160838 4.390758 -5.561486 10.064737 26.532923 36.457893 36.779643 0.000417 100.121762 -0.000346 35.352284 5.202753 -28.385038 -2.464811 -1.573978 2.681909 -2.751495 -4.118397 -16.384937 17.556328 -15.075001 5.641716 -2.646267 -1.527809 1.527813 -19.291874 15.561765 -10.407800 -1.994579 -1.151575 1.151570 -0.000000 -0.000001 0.000001 -9.108311 -0.517882 2.259805 1.079371 2.012290 62.732494 4.583515 -4.656582 89.092871 3.725012 -4.563134 78.441533 0.000001 0.000003 0.000002 -9.532515 0.000017 0.000000 1.378728 -6.198587 74.722099 4.320183 -4.644979 85.846127 3.785563 -4.575053 79.201863 -0.000000 0.000007 0.000008 -9.103594 -0.043085 -1.865092 4.043963 -6.884435 82.209639 4.400133 -4.650084 86.832762 3.419797 -4.490136 74.575653 0.000002 0.000001 -0.000000 -8.076715 -0.486703 -3.806302 -6.529006 -18.225383 78.595000 3.880669 -4.592109 80.391648 3.388838 -4.481504 74.179836 -0.000000 0.000002 0.000002 4.570404 11.014668 -2.160815 4.308993 2.158047 -12.447651 37.029444 -11.969633 -38.160164 -0.000034 -63.354547 -0.000018 38.378297 0.625734 -16.052973 2.466114 -1.576228 2.681693 -4.261390 -3.952748 21.970354 18.888782 14.673034 -14.919587 2.647885 -1.528760 1.528756 -18.152486 -8.882239 13.082834 1.998929 -1.154087 1.154076 -0.000001 0.000003 -0.000002 9.109308 -0.518005 2.259896 -1.798143 -1.973661 -21.779047 1.000676 3.276444 -33.960537 0.379511 2.076186 -20.717051 0.000000 -0.000000 -0.000001 9.533424 -0.000016 -0.000002 0.302343 4.088579 -21.970572 0.900179 3.122288 -32.160147 0.652907 2.689712 -27.285441 -0.000000 0.000002 0.000001 9.104516 -0.043007 -1.865104 2.162760 7.573208 -29.674785 1.098836 3.417438 -35.642044 1.198123 3.551571 -37.275460 -0.000000 -0.000002 -0.000000 8.077829 -0.486911 -3.806303 -6.198146 9.908592 -30.590262 1.023012 3.309315 -34.349571 0.712047 2.801279 -28.520283 -0.000000 -0.000001 0.000000 -8.207801 -6.751734 -1.599544 -4.164339 -12.415711 -4.066001 14.107014 3.677529 3.732548 -4.496210 -0.247397 1.322774 -11.266128 -0.000004 0.000002 0.000000 0.000000 -0.000001 8.207800 -6.751724 -1.599544 -33.481113 3.002529 -4.566571 25.659050 7.439284 0.422119 -7.397980 0.742333 -6.589873 0.106185 -0.000005 0.000004 -0.000001 0.000001 0.000001 
-0.028490 103.227425 16.397717 5.096736 5.670499 2.242874 0.000000 10.181561 0.131523 8.762638 5.434437 -6.196162 0.504697 1.767826 -1.014067 0.488388 1.783614 -1.022345 -0.000000 16.740366 -2.049014 -10.653344 -0.821048 -2.234966 -0.000001 9.617848 1.684983 -16.959718 -6.687567 -5.251818 0.000001 22.037338 7.501064 -0.000000 -0.000000 -0.000001 -4.570003 11.014887 -2.160839 4.343205 -5.212976 9.974729 27.628040 37.127798 35.513121 0.000294 104.277939 -0.000237 38.034943 2.656226 -27.401845 -2.464799 -1.574018 2.681907 -2.751495 -4.118398 -16.384936 17.618137 -15.259305 5.731254 -2.646262 -1.527816 1.527823 -19.284366 15.476391 -10.384889 -1.994586 -1.151584 1.151571 0.000001 -0.000001 0.000001 -9.108307 -0.517899 2.259809 1.187193 1.997705 62.173621 4.546375 -4.655853 88.635297 3.717469 -4.561586 78.346750 0.000002 0.000002 0.000002 -9.532513 0.000004 0.000000 1.348663 -6.179798 74.454157 4.312970 -4.644459 85.757048 3.788970 -4.575697 79.244558 0.000001 0.000001 0.000002 -9.103607 -0.043118 -1.865095 4.034337 -6.883002 82.000813 4.384296 -4.649163 86.637220 3.412205 -4.488049 74.478684 0.000004 0.000002 0.000001 -8.076694 -0.486732 -3.806301 -6.479163 -18.048630 78.238813 3.862874 -4.589074 80.169441 3.369008 -4.475843 73.925979 0.000004 -0.000002 -0.000000 4.570397 11.014674 -2.160812 4.382653 2.650489 -12.566452 35.959799 -10.886472 -38.150162 -0.000031 -64.673244 -0.000058 37.434505 0.281838 -14.891838 2.466092 -1.576208 2.681703 -4.263807 -3.837945 22.006612 19.180348 15.283028 -15.217545 2.647875 -1.528750 1.528752 -17.888081 -7.579210 12.566759 1.998925 -1.154087 1.154085 -0.000001 0.000000 -0.000000 9.109276 -0.518021 2.259903 -1.633211 -1.907481 -23.302556 1.076628 3.386291 -35.267501 0.461975 2.282214 -22.885601 -0.000000 -0.000000 0.000001 9.533390 0.000002 0.000003 0.217795 3.925153 -23.290759 0.970153 3.230734 -33.422899 0.743198 2.857787 -29.151329 -0.000001 -0.000003 0.000001 9.104504 -0.042998 -1.865098 2.239208 7.585340 -30.981765 1.152764 3.491272 -36.536878 1.317798 3.703227 -39.166996 -0.000000 -0.000002 -0.000001 8.077799 -0.486894 -3.806299 -6.083628 9.850347 -32.282490 1.094312 3.411113 -35.565785 0.790572 2.940984 -30.087745 0.000001 -0.000001 0.000000 -8.207802 -6.751713 -1.599544 -1.662940 -12.526239 -3.539018 15.143214 5.461876 3.813405 -7.081905 -0.174110 0.100784 -12.353692 0.000002 -0.000001 0.000000 -0.000000 0.000000 8.207800 -6.751702 -1.599547 -35.311969 3.501914 -4.223598 15.784332 9.196116 0.760033 -7.921700 2.045739 -5.362647 1.409690 0.000003 0.000000 0.000001 0.000002 -0.000001 
